# xmcd
#
# Track frame offsets:
#	150
#	16668
#	35725
#	57850
#	69492
#	85987
#	99410
#	117650
#	136232
#	157487
#	179305
#	206310
#	224910
#	238640
#	274105
#
# Disc length: 3850 seconds
# Revision: 3
# Processed by: cddbd v1.5.2PL0 Copyright (c) Steve Scherf et al.
# Submitted via: dBpowerAMP V12.0
#
DISCID=df0f080f
DTITLE=Odetta - Blues everywhere I go
DYEAR=2003
DGENRE=Folk-Blues
TTITLE0=You gotta know how
TTITLE1=W.P.A. blues
TTITLE2=Blues everywhere I go
TTITLE3=Please send me someone to love
TTITLE4=Look the world over
TTITLE5=Can't afford to lose my man
TTITLE6=Trouble everywhere_I've been living with the blues
TTITLE7=Unemployment blues
TTITLE8=Rich man blues
TTITLE9=Dink's blues
TTITLE10=Homeless blues
TTITLE11=TB blues
TTITLE12=Oh papa
TTITLE13=Careless love_St. Louis blues
TTITLE14=Hear me talking to you
EXTD=
EXTT0=
EXTT1=
EXTT2=
EXTT3=
EXTT4=
EXTT5=
EXTT6=
EXTT7=
EXTT8=
EXTT9=
EXTT10=
EXTT11=
EXTT12=
EXTT13=
EXTT14=
PLAYORDER=
